/* XPM */
static char *_860a815b6e545f6f57136beac140fdaK98DzFPCuh2zVYm0[] = {
/* columns rows colors chars-per-pixel */
"87 93 104 2 ",
"   c None",
".  c #633E25",
"X  c #674026",
"o  c #6F4629",
"O  c #774B2C",
"+  c #7A4D2E",
"@  c #7E502E",
"#  c #7A5236",
"$  c #81522F",
"%  c #855431",
"&  c #895632",
"*  c #865936",
"=  c #8C5932",
"-  c #8E5F3A",
";  c #945E36",
":  c #8E603C",
">  c #976036",
",  c #9B6337",
"<  c #9D6438",
"1  c #A16639",
"2  c #A66A3B",
"3  c #AB6E3D",
"4  c #AE703E",
"5  c #B0713F",
"6  c #815C40",
"7  c #8C6342",
"8  c #926743",
"9  c #936C4D",
"0  c #886D59",
"q  c #946F51",
"w  c #937155",
"e  c #9A7455",
"r  c #AF774D",
"t  c #B47442",
"y  c #B87745",
"u  c #B97946",
"i  c #BC7B49",
"p  c #9A7C64",
"a  c #C07E4C",
"s  c #9B816A",
"d  c #9C8571",
"f  c #9E8977",
"g  c #978A7F",
"h  c #A08D7D",
"j  c #AD947F",
"k  c #C4895A",
"l  c #978D84",
"z  c #A19284",
"x  c #A89687",
"c  c #A49C94",
"v  c #A6A098",
"b  c #A8A39D",
"n  c #A0A2A1",
"m  c #A9A9A5",
"M  c #A5ABAF",
"N  c #ABACAB",
"B  c #B6ACA4",
"V  c #ADB3B6",
"C  c #ABB5BC",
"Z  c #B0B3B4",
"A  c #C3AD9B",
"S  c #C8B3A2",
"D  c #CEBAAC",
"F  c #DACCBF",
"G  c #AAB7C0",
"H  c #AEBBC3",
"J  c #B0BCC3",
"K  c #B1BFC8",
"L  c #B1C1CA",
"P  c #B9C2C8",
"I  c #B2C5D2",
"U  c #B3C8D7",
"Y  c #B4CBDB",
"T  c #B4CEE0",
"R  c #AFD1EC",
"E  c #B3D1E7",
"W  c #B3D4ED",
"Q  c #B6D7F0",
"!  c #BCDCF2",
"~  c #C7CACB",
"^  c #C1CFD8",
"/  c #C4D2DC",
"(  c #D0D7D8",
")  c #E4DBD2",
"_  c #C6D9E5",
"`  c #C9E0EF",
"'  c #C3E2F6",
"]  c #CBE5F5",
"[  c #C6E4F8",
"{  c #C9E7F9",
"}  c #CDEBFB",
"|  c #D2EEFD",
" . c #D8EDFA",
".. c #D5F1FF",
"X. c #DBF3FF",
"o. c #EAE5E0",
"O. c #EFEDEA",
"+. c #E3F5FF",
"@. c #E9F7FF",
"#. c #EEF8FF",
"$. c #F4F4F2",
"%. c #F2F7FC",
"&. c #F5FAFF",
"*. c #FAFDFF",
/* pixels */
"                                                  *.*.*.*.*.                                                                                                                  ",
"                                                *.*.*.&.&.*.*.*.                                                                                                              ",
"                                              &.&.&.&.&.&.&.&.&.&.                                                                                                            ",
"                                            &.&.&.&.&.+.&.&.&.%.&.                                                                                                            ",
"                                            &.&.&.&.X...@.%.+.X.&.%.                                                                                                          ",
"                                          %.%.@.&.X...X...X.....@.&.                                                                                                          ",
"                                          %.X.| ..] / / } } ` ] X.#.D                                                                                                         ",
"                                          @.| _ ^ e > > 8 x ; : _ | (                                                                                                         ",
"                                        @. .x 1 > 3 4 4 3 1 4 2 + Z B                                                                                                         ",
"                                         .~ u u 4 4 4 4 5 4 5 2 ; & ;                                                                                                         ",
"                                          r a i 4 4 4 4 4 4 4 2 ; ; ,                                                                                                         ",
"                                          i a i 4 4 4 4 4 4 5 2 ; ; ,                                                                                                         ",
"                                          a a a 4 4 4 4 4 4 4 2 > ; 1                                                                                                         ",
"                                          a a a 4 4 4 4 4 4 4 2 ; ; ,                                                                                                         ",
"                                          a u 5 4 4 4 4 4 4 5 2 ; ; <                         %.&.*.*.*.&.                                                                    ",
"                                          a k u 4 4 4 4 4 4 5 2 ; ; <                     &.*.*.*.*.&.&.*.*.*.%.                                                              ",
"                                          i k y 4 4 4 4 4 4 4 2 > > ,                   *.*.&.&.&.&.&.&.&.&.&.*.*.&.                                                          ",
"                                          a a u 4 4 4 4 4 4 5 2 ; > ,                 &.&.&.&.&.&.&.&.&.&.&.&.&.&.*.*.                                                        ",
"                  &.%.%.%.%.#.%.&.#.      k a u 3 4 4 4 4 4 4 2 ; ; <               &.*.&.&.&.&.&.&.&.&.&.&.&.&.&.&.&.*.*.                                                    ",
"        %.*.*.*.*.*.*.*.*.*.*.*.*.*.*.*.*.*.*.*.*.*.*.$.O.o.) F D A S         %.&.*.*.&.&.&.&.&.&.&.&.&.&.&.&.&.&.&.&.&.*.*.&.                                                ",
"    &.*.*.*.&.&.&.&.&.&.&.&.&.&.&.&.&.&.*.&.&.&.&.&.*.&.*.*.&.*.*.*.*.*.*.*.*.*.*.&.&.&.&.&.&.&.&.&.&.&.&.&.&.&.&.&.&.&.&.&.*.*.                                              ",
"  &.*.&.&.&.&.&.&.&.&.&.%.#.&.&.&.&.&.&.&.&.&.&.&.&.&.&.&.&.&.&.&.&.&.&.&.&.&.&.&.&.&.&.&.&.&.&.&.&.&.&.&.&.&.&.*.&.&.&.&.&.&.&.*.&.                                          ",
"  *.&.&.&.&.&.&.&.&.#.X.......#.&.&.&.&.&.&.&.&.&.&.&.&.&.&.&.&.&.&.&.&.&.#.&.&.&.&.&.&.&.&.&.&.&.&.&.&.&.&.&.&.%.+.....X.%.&.&.&.*.*.                                        ",
"%.&.&.&.&.&.&.&.&.@.............&.&.&.&.&.&.&.&.&.&.&.&.&.&.&.&.%.@.+.X.........X.@.%.&.&.&.&.&.&.&.&.&.&.&.&.&.X.........X.#.&.&.&.&.*.&.                                    ",
"X.&.&.&.&.&.&.&.+...............X.+.&.&.&.&.&.&.&.&.&.&.&.@.+.X.......................X.#.&.&.&.&.&.&.&.&.&.&.X...............@.&.&.&.&.*.*.                                  ",
"} &.&.&.&.&.*.+.....................X.+.@.%.&.&.&.@.@.X...................................X.@.%.&.&.&.&.&.&.X...................#.&.&.&.&.&.*.%.                              ",
"' @.&.&.&.&.+...........{ ! ! ' { | ......................................| ....................+.@.&.&.&.+.....{ ! R R W [ ......#.&.&.&.&.*.*.&.                            ",
"' X.&.&.&.X...........! W L L T W R W ' { ..............| } { ' ! ! Q R R R R R W ! ' } ......................! W L z d m W Q ......@.&.&.&.&.&.*.*.                          ",
"  ' @.%.X.........' W I 7 > ; = = p V T R R W Q Q Q W R R R W E U J N v g s s h b J Y E R R Q ' { } ......} Q Y 9 ; < , > = C W } ....+.&.&.&.&.&.&.*.                        ",
"  ! ..X.......{ W E g $ > 1 2 2 2 < > = : f b N V m b x s 7 & * = = , 1 < < < < > > = = w v L Y W R R W W R N = < 1 < > ; = @ l R ' ......@.&.&.&.&.&.*.                      ",
"    [ ....[ W W n + % ; > ; ; ; > > < < > ; ; ; > > < < 2 2 t 4 5 5 5 5 5 5 5 5 5 5 5 3 2 , > > > 8 d c c 7 $ ; > ; ; ; > > ; $ 0 E Q | ......+.@.@.%.%.&.                    ",
"    W ! W W M # $ = ; > > , , < < < < 1 1 2 2 2 2 4 4 4 t 4 t t u i i 5 a i i k a u k i u k u 4 < > = % & = < > < < < < < < < < > * L W ! | ..............|                   ",
"      G l $ ; 1 3 3 4 4 4 4 4 4 4 4 4 4 4 4 4 4 4 4 4 4 4 4 4 4 5 5 4 4 4 4 4 4 4 4 5 t 5 4 4 4 4 4 4 4 4 4 4 4 4 4 4 4 4 4 4 4 4 2 ; p U W Q ! { { } } } } P                 ",
"      + $ 1 4 4 5 4 4 4 4 4 4 4 4 4 4 4 4 4 4 4 4 4 4 4 4 4 4 4 4 4 4 4 4 4 4 4 4 4 4 4 4 4 4 4 4 4 4 4 4 4 4 4 4 4 4 4 4 4 4 4 4 4 4 , = w N I E W R W R R N >               ",
"      > > 3 4 4 4 4 4 4 4 4 4 4 4 4 4 4 4 4 4 4 4 4 4 4 4 4 4 4 4 4 4 4 4 4 4 4 4 4 4 4 4 4 4 4 4 4 4 4 4 4 4 4 4 4 4 4 4 4 4 4 4 4 4 4 4 1 > = = = = w w : $ > > ;           ",
"      ; ; 3 4 4 4 4 4 4 4 4 4 4 4 4 4 4 4 4 4 4 4 4 4 5 3 4 4 4 4 4 4 4 4 4 4 4 4 4 4 4 4 4 4 4 4 4 4 4 4 4 4 4 4 4 4 4 4 4 4 4 4 4 4 4 4 4 4 4 2 2 1 1 < 1 1 > ; ; ;         ",
"      ; ; 3 5 4 4 4 4 4 4 4 4 4 4 4 4 4 4 4 3 4 4 4 4 4 4 4 4 4 4 4 4 4 4 4 4 4 4 4 4 4 4 4 4 4 4 4 4 4 4 4 4 4 4 4 4 5 4 4 4 4 4 4 4 4 4 4 4 4 4 4 4 4 4 4 4 4 < ; ; ; ;     ",
"      ; ; 3 4 4 4 4 4 4 4 4 4 4 4 4 4 4 4 4 5 4 4 4 4 4 4 4 4 4 4 4 4 4 4 4 4 4 4 4 4 4 5 5 t 5 y y u y u y u u u u u u u u u u u u t 5 4 4 4 4 4 4 4 4 4 4 4 4 4 < ; ; ; ;   ",
"      ; ; 3 4 4 4 4 4 4 3 5 4 4 4 4 4 4 4 4 4 4 4 4 4 4 4 4 4 4 4 4 4 4 4 4 4 4 4 4 4 4 4 4 4 4 4 4 4 4 4 5 t y 5 u u u 5 k u u t 5 4 4 4 4 4 4 4 4 4 4 4 4 4 1 , ; ; ; ;     ",
"      ; ; 2 4 4 4 4 4 4 4 4 4 4 4 4 5 3 4 4 4 4 4 4 4 4 4 4 4 5 4 4 4 4 4 4 4 4 4 4 4 4 4 4 4 4 4 4 4 4 4 4 4 4 5 5 3 5 3 4 4 4 4 4 4 4 4 4 4 4 4 4 4 4 4 4 , > ; ; ;         ",
"      ; ; 3 t t t y t y t y y y u u u u u u u u y y y y y t t t 5 5 5 5 5 5 5 5 5 4 4 4 4 4 4 4 4 4 4 4 4 4 4 4 4 4 4 4 4 4 4 4 3 5 5 4 4 4 5 4 4 5 t 3 < ; ; ; ;             ",
"      > ; 3 3 3 5 t y y y t t t t 5 5 5 5 3 4 5 4 4 3 5 4 4 4 4 4 4 5 5 4 4 4 4 4 4 4 4 4 4 4 4 4 4 4 4 4 4 4 4 4 4 4 4 4 4 4 4 5 5 3 5 4 4 3 5 4 3 1 ; ; ; ;                 ",
"      ; ; 3 4 4 5 4 3 5 4 4 4 4 3 4 4 4 5 5 4 4 4 4 4 4 4 4 4 4 4 4 5 5 4 4 4 4 4 4 4 4 4 4 4 4 4 4 4 4 4 4 4 4 4 4 4 4 4 4 4 4 3 3 t 3 4 3 5 3 2 , ; ; ; ;                   ",
"      ; ; 1 2 2 2 3 3 3 3 5 4 4 4 4 4 4 3 3 4 4 4 4 4 4 4 4 3 5 4 4 4 4 4 4 4 4 4 4 4 4 4 4 4 4 4 4 4 4 4 4 4 4 4 4 4 4 4 4 2 , < < < 1 1 1 1 < ; ; ; ;                       ",
"      ; ; ; ; ; ; > ; ; ; ; ; > > 1 2 3 5 5 4 4 4 4 4 4 4 4 4 4 4 4 4 4 4 4 4 4 4 4 4 4 4 4 4 4 4 5 5 5 5 5 5 5 5 3 5 5 4 4 4 3 > ; ; ; ; ; ; ; ; ;                           ",
"      ; ; ; ; > ; ; ; < , 2 2 3 5 5 3 4 5 3 4 4 4 4 4 4 4 4 4 4 4 4 4 4 4 4 4 4 4 5 5 5 y y y y 5 5 5 5 5 5 5 5 5 4 5 5 4 4 4 3 4 2 , ; ; ; ; ;                               ",
"      ; ; , < 1 2 2 4 4 5 5 4 4 4 4 4 4 4 4 4 4 4 4 4 4 4 4 4 4 4 4 4 4 4 4 4 4 4 4 4 4 4 4 4 4 5 5 a a i a y k a a k 5 5 5 5 4 5 2 > ; ; ; ;                                 ",
"      ; ; 3 3 t 4 4 4 4 5 3 4 4 4 4 4 4 4 4 4 4 4 4 4 4 4 4 4 4 4 4 4 4 4 4 4 4 4 4 4 4 4 4 4 4 5 5 5 5 5 5 5 5 5 4 5 5 5 4 4 3 < ; ; ; ;                                     ",
"      ; ; t 3 t 3 3 t 3 3 t 3 4 5 3 5 5 4 4 t 3 3 3 5 5 t 3 4 5 4 4 3 t 4 4 3 t 4 3 3 t 4 4 4 4 5 5 3 5 4 4 4 4 4 4 5 5 3 3 2 ; ; ; ;                                         ",
"      ; ; 2 2 2 2 2 2 3 2 2 2 2 2 3 2 2 2 2 2 3 2 3 2 2 2 2 2 2 2 2 2 3 2 2 2 2 3 2 2 3 2 2 3 2 3 3 2 2 3 5 4 4 4 4 3 4 2 > ; ; ;                                             ",
"      ; ; ; ; ; ; ; ; ; ; ; ; ; ; ; ; ; ; ; ; ; ; ; ; ; ; ; ; ; ; ; ; ; ; ; ; ; ; ; ; ; ; ; ; ; ; > > > 1 3 4 4 4 5 2 < ; ; ; ;                                               ",
"      ; ; ; ; ; ; ; ; ; ; ; ; ; ; ; ; ; ; ; ; ; ; ; ; ; ; ; ; ; ; ; ; ; ; ; ; ; ; ; ; ; ; ; ; ; ; > = > 1 4 4 5 3 < ; ; ; ;                                                   ",
"                                          t i u 3 3 2 > 3 3 3 2 ; ; <                               ; ; < 4 5 1 ; ; ; ;                                                       ",
"                                          5 i u 3 t 2 > 4 5 4 2 ; ; <                               ; ; < 2 > ; ; ; ;                                                         ",
"                                          5 u i 5 4 < > 4 4 4 2 ; ; <                               ; ; ; ; ; ; ;                                                             ",
"                                          5 y i 4 4 ; ; 4 4 4 < ; ; ,                               ; ; ; ; ;                                                                 ",
"                                          5 t u 4 2 ; ; 4 3 3 ; ; ; ,                               ; ; ;                                                                     ",
"                                          5 t i 4 2 ; ; 4 3 2 ; ; ; ,                               ; ;                                                                       ",
"                                          5 5 u 4 ; ; ; 4 4 < ; & ; <                                                                                                         ",
"                                          5 4 u 4 ; ; ; 3 4 ; = & ; <                                                                                                         ",
"                                          4 4 u 2 ; ; ; 3 2 ; ; $ ; ,                                                                                                         ",
"                                          5 4 y 1 ; ; ; 3 > ; ; + ; <                                                                                                         ",
"                                          5 5 t ; ; ; ; 2 ; ; ; + ; =                                                                                                         ",
"                                          5 5 t ; ; ; ; < ; ; ; + + =                                                                                                         ",
"                                          5 4 5 ; ; ; ; ; ; ; ; + + =                                                                                                         ",
"                                          5 4 4 ; ; ; ; ; ; ; ; + + =                                                                                                         ",
"                                          5 3 t ; ; ; ; ; ; ; ; + + =                                                                                                         ",
"                                          5 3 4 ; ; ; ; ; ; ; ; + + &                                                                                                         ",
"                                          t 5 5 ; ; ; ; ; ; ; ; + + =                                                                                                         ",
"                                          4 3 5 % ; ; ; ; ; ; = + + =                                                                                                         ",
"                                          4 4 5 @ ; ; ; ; ; ; ; + + =                                                                                                         ",
"                                          5 4 3 + ; ; ; ; = & = + + &                                                                                                         ",
"                                          4 4 3 + & ; ; ; & $ ; + + =                                                                                                         ",
"                                          5 4 3 + % ; ; ; & + = + + =                                                                                                         ",
"                                          5 4 2 + @ ; ; ; $ + % + + &                                                                                                         ",
"                                          5 3 2 + + = ; ; # + @ + + &                                                                                                         ",
"                                          3 3 2 + + & ; ; + + + O + $                                                                                                         ",
"                                          2 5 1 + + % ; = + + + o + @                                                                                                         ",
"                                          ; t 1 # + + ; = + + + X + +                                                                                                         ",
"                                          ; 1 < + + + = & + + O . O O                                                                                                         ",
"                                          > < 1 + + + % % + + O . o O                                                                                                         ",
"                                          ; ; < + + + $ $ + + + . . +                                                                                                         ",
"                                          ; ; ; + @ + + + + + O . . +                                                                                                         ",
"                                          ; ; ; + + + + + + + + . . O                                                                                                         ",
"                                          ; ; ; + + + + + + + + . . O                                                                                                         ",
"                                          > ; ; + + + + + + + + . . O                                                                                                         ",
"                                          > ; ; + + + + + + + O . . O                                                                                                         ",
"                                          ; ; ; + + + + + + + + . . O                                                                                                         ",
"                                          ; ; ; + + + + + + + + . . O                                                                                                         ",
"                                          ; ; ; + + + + # + + O . . O                                                                                                         ",
"                                          ; ; ; + # + + + + + + . . +                                                                                                         ",
"                                          ; ; ; + + + + + + + + . . O                                                                                                         ",
"                                          1 1 < % % % % % % % $ o o %                                                                                                         "
};
